# xmcd CD database file
#
# Track frame offsets:
#	150
#	17889
#	40368
#	58996
#	73405
#	92981
#	106397
#	121297
#	134520
#	152849
#
# Disc length: 2306 seconds
#
# Revision: 0
# Processed by: cddbd v1.5.2PL0 Copyright (c) Steve Scherf et al.
# Submitted via: CDex 1.70beta2
#
DISCID=9809000a
DTITLE=Various Artist - Listening Is Believing Vol.3
DYEAR=2009
DGENRE=Jazz
TTITLE0=DJ Whitesmith - Haku
TTITLE1=Prisma - Menina
TTITLE2=Tsunenori - Floral Clock
TTITLE3=Robert De Boron - Fines
TTITLE4=Hazzy - Nooning
TTITLE5=Float 11 - Waterlogged Coast
TTITLE6=Lobe A.K.A C.A.L.M - It's Time To...
TTITLE7=Mizube - Standard Explanation
TTITLE8=Bona Fat - Kaos
TTITLE9=Ghst Bust@ - Good Luck
EXTD=YEAR: 2009
EXTT0=
EXTT1=
EXTT2=
EXTT3=
EXTT4=
EXTT5=
EXTT6=
EXTT7=
EXTT8=
EXTT9=
PLAYORDER=
